<?xml version="1.0" encoding="UTF-8" standalone="no"?>
<!DOCTYPE svg PUBLIC "-//W3C//DTD SVG 1.1//EN" "http://www.w3.org/Graphics/SVG/1.1/DTD/svg11.dtd">
<svg width="100%" height="100%" viewBox="0 0 500 500" version="1.1" xmlns="http://www.w3.org/2000/svg" xmlns:xlink="http://www.w3.org/1999/xlink" xml:space="preserve" xmlns:serif="http://www.serif.com/" style="fill-rule:evenodd;clip-rule:evenodd;stroke-linejoin:round;stroke-miterlimit:2;">
    <path d="M389.025,92.063L389.025,45.945L469.281,45.945L469.281,124.786L417.454,124.786L417.454,419.661L67.264,419.661L67.264,92.063L389.025,92.063Z" style="fill:white;"/>
    <path d="M365.983,78.248C368.703,45.833 395.904,20.34 429.012,20.34C463.922,20.34 492.265,48.682 492.265,83.592C492.265,118.502 463.922,146.844 429.012,146.844L429.012,416.426C429.012,441.658 408.527,462.144 383.294,462.144L69.674,462.144C44.441,462.144 23.955,441.658 23.955,416.426L23.955,123.966C23.955,98.733 44.441,78.248 69.674,78.248L365.983,78.248ZM120.04,403.105C103.157,403.105 89.529,389.386 89.529,372.391C89.529,355.601 103.157,341.677 120.04,341.677C136.719,341.677 150.551,355.601 150.551,372.391C150.551,389.386 136.719,403.105 120.04,403.105ZM170.891,362.153L353.954,362.153L353.954,382.629L170.891,382.629L170.891,362.153ZM120.04,300.725C103.157,300.725 89.529,287.006 89.529,270.011C89.529,253.221 103.157,239.297 120.04,239.297C136.719,239.297 150.551,253.221 150.551,270.011C150.551,287.006 136.719,300.725 120.04,300.725ZM170.891,259.773L353.954,259.773L353.954,280.249L170.891,280.249L170.891,259.773ZM120.04,198.345C103.157,198.345 89.529,184.626 89.529,167.631C89.529,150.84 103.157,136.917 120.04,136.917C136.719,136.917 150.551,150.84 150.551,167.631C150.551,184.626 136.719,198.345 120.04,198.345ZM170.891,157.393L353.954,157.393L353.954,177.869L170.891,177.869L170.891,157.393ZM423.898,112.744L423.898,88.556L399.89,88.556L399.89,78.448L423.898,78.448L423.898,54.44L434.127,54.44L434.127,78.448L458.135,78.448L458.135,88.556L434.127,88.556L434.127,112.744L423.898,112.744Z" style="fill:rgb(58,131,181);"/>
</svg>
